<mxfile host="app.diagrams.net" agent="Mozilla/5.0 (Windows NT 10.0; Win64; x64; rv:131.0) Gecko/20100101 Firefox/131.0" version="24.8.1">
  <diagram name="第 1 页" id="JpKMsO1lSTSvFhZ_q1Vj">
    <mxGraphModel dx="989" dy="520" grid="1" gridSize="10" guides="1" tooltips="1" connect="1" arrows="1" fold="1" page="1" pageScale="1" pageWidth="827" pageHeight="1169" math="0" shadow="0">
      <root>
        <mxCell id="0" />
        <mxCell id="1" parent="0" />
        <mxCell id="5k1g2GwFXr-7lkfAhNHs-1" value="&lt;p&gt;&lt;font face=&quot;Georgia&quot;&gt;thermal core&lt;/font&gt;&lt;/p&gt;" style="rounded=0;whiteSpace=wrap;html=1;" vertex="1" parent="1">
          <mxGeometry x="320" y="150" width="120" height="60" as="geometry" />
        </mxCell>
        <mxCell id="5k1g2GwFXr-7lkfAhNHs-3" value="" style="endArrow=classic;html=1;rounded=0;exitX=0.5;exitY=1;exitDx=0;exitDy=0;" edge="1" parent="1" source="5k1g2GwFXr-7lkfAhNHs-1">
          <mxGeometry width="50" height="50" relative="1" as="geometry">
            <mxPoint x="390" y="410" as="sourcePoint" />
            <mxPoint x="380" y="280" as="targetPoint" />
          </mxGeometry>
        </mxCell>
        <mxCell id="5k1g2GwFXr-7lkfAhNHs-4" value="&lt;font face=&quot;Georgia&quot;&gt;thermal zone device&lt;/font&gt;" style="rounded=0;whiteSpace=wrap;html=1;" vertex="1" parent="1">
          <mxGeometry x="80" y="280" width="120" height="60" as="geometry" />
        </mxCell>
        <mxCell id="5k1g2GwFXr-7lkfAhNHs-5" value="&lt;p&gt;&lt;font face=&quot;Georgia&quot;&gt;thermal governor&lt;br&gt;&lt;/font&gt;&lt;/p&gt;" style="rounded=0;whiteSpace=wrap;html=1;" vertex="1" parent="1">
          <mxGeometry x="320" y="280" width="120" height="60" as="geometry" />
        </mxCell>
        <mxCell id="5k1g2GwFXr-7lkfAhNHs-6" value="&lt;div&gt;&lt;font face=&quot;Georgia&quot;&gt;thermal cool device&lt;br&gt;&lt;/font&gt;&lt;/div&gt;" style="rounded=0;whiteSpace=wrap;html=1;" vertex="1" parent="1">
          <mxGeometry x="560" y="280" width="120" height="60" as="geometry" />
        </mxCell>
        <mxCell id="5k1g2GwFXr-7lkfAhNHs-7" value="" style="endArrow=classic;html=1;rounded=0;entryX=0.5;entryY=0;entryDx=0;entryDy=0;" edge="1" parent="1" target="5k1g2GwFXr-7lkfAhNHs-4">
          <mxGeometry width="50" height="50" relative="1" as="geometry">
            <mxPoint x="380" y="240" as="sourcePoint" />
            <mxPoint x="148.04000000000002" y="191.02" as="targetPoint" />
          </mxGeometry>
        </mxCell>
        <mxCell id="5k1g2GwFXr-7lkfAhNHs-8" value="" style="endArrow=classic;html=1;rounded=0;entryX=0.5;entryY=0;entryDx=0;entryDy=0;" edge="1" parent="1" target="5k1g2GwFXr-7lkfAhNHs-6">
          <mxGeometry width="50" height="50" relative="1" as="geometry">
            <mxPoint x="380" y="240" as="sourcePoint" />
            <mxPoint x="150" y="290" as="targetPoint" />
          </mxGeometry>
        </mxCell>
        <mxCell id="5k1g2GwFXr-7lkfAhNHs-9" value="" style="endArrow=none;dashed=1;html=1;rounded=0;" edge="1" parent="1">
          <mxGeometry width="50" height="50" relative="1" as="geometry">
            <mxPoint x="40" y="360" as="sourcePoint" />
            <mxPoint x="720" y="360" as="targetPoint" />
          </mxGeometry>
        </mxCell>
        <mxCell id="5k1g2GwFXr-7lkfAhNHs-11" value="" style="endArrow=none;dashed=1;html=1;rounded=0;" edge="1" parent="1">
          <mxGeometry width="50" height="50" relative="1" as="geometry">
            <mxPoint x="40" y="360" as="sourcePoint" />
            <mxPoint x="40" y="120" as="targetPoint" />
          </mxGeometry>
        </mxCell>
        <mxCell id="5k1g2GwFXr-7lkfAhNHs-12" value="" style="endArrow=none;dashed=1;html=1;rounded=0;" edge="1" parent="1">
          <mxGeometry width="50" height="50" relative="1" as="geometry">
            <mxPoint x="40" y="120" as="sourcePoint" />
            <mxPoint x="720" y="120" as="targetPoint" />
          </mxGeometry>
        </mxCell>
        <mxCell id="5k1g2GwFXr-7lkfAhNHs-13" value="" style="endArrow=none;dashed=1;html=1;rounded=0;" edge="1" parent="1">
          <mxGeometry width="50" height="50" relative="1" as="geometry">
            <mxPoint x="720" y="360" as="sourcePoint" />
            <mxPoint x="720" y="120" as="targetPoint" />
          </mxGeometry>
        </mxCell>
        <mxCell id="5k1g2GwFXr-7lkfAhNHs-14" value="&lt;font face=&quot;Georgia&quot;&gt;sensor&lt;/font&gt;" style="rounded=0;whiteSpace=wrap;html=1;fillColor=#FF0000;" vertex="1" parent="1">
          <mxGeometry x="57" y="420" width="50" height="40" as="geometry" />
        </mxCell>
        <mxCell id="5k1g2GwFXr-7lkfAhNHs-15" value="&lt;font face=&quot;Georgia&quot;&gt;ntc&lt;/font&gt;" style="rounded=0;whiteSpace=wrap;html=1;fillColor=#FF0000;" vertex="1" parent="1">
          <mxGeometry x="115" y="420" width="50" height="40" as="geometry" />
        </mxCell>
        <mxCell id="5k1g2GwFXr-7lkfAhNHs-16" value="" style="endArrow=none;html=1;rounded=0;" edge="1" parent="1">
          <mxGeometry width="50" height="50" relative="1" as="geometry">
            <mxPoint x="110" y="390" as="sourcePoint" />
            <mxPoint x="160" y="340" as="targetPoint" />
          </mxGeometry>
        </mxCell>
        <mxCell id="5k1g2GwFXr-7lkfAhNHs-17" value="" style="endArrow=none;dashed=1;html=1;rounded=0;" edge="1" parent="1">
          <mxGeometry width="50" height="50" relative="1" as="geometry">
            <mxPoint x="40" y="400" as="sourcePoint" />
            <mxPoint x="200" y="400" as="targetPoint" />
          </mxGeometry>
        </mxCell>
        <mxCell id="5k1g2GwFXr-7lkfAhNHs-18" value="" style="endArrow=none;dashed=1;html=1;rounded=0;" edge="1" parent="1">
          <mxGeometry width="50" height="50" relative="1" as="geometry">
            <mxPoint x="40" y="480" as="sourcePoint" />
            <mxPoint x="200" y="480" as="targetPoint" />
          </mxGeometry>
        </mxCell>
        <mxCell id="5k1g2GwFXr-7lkfAhNHs-19" value="" style="endArrow=none;dashed=1;html=1;rounded=0;" edge="1" parent="1">
          <mxGeometry width="50" height="50" relative="1" as="geometry">
            <mxPoint x="40" y="480" as="sourcePoint" />
            <mxPoint x="40" y="400" as="targetPoint" />
          </mxGeometry>
        </mxCell>
        <mxCell id="5k1g2GwFXr-7lkfAhNHs-20" value="" style="endArrow=none;dashed=1;html=1;rounded=0;" edge="1" parent="1">
          <mxGeometry width="50" height="50" relative="1" as="geometry">
            <mxPoint x="200" y="480" as="sourcePoint" />
            <mxPoint x="200" y="400" as="targetPoint" />
          </mxGeometry>
        </mxCell>
        <mxCell id="5k1g2GwFXr-7lkfAhNHs-22" value="&lt;font face=&quot;Georgia&quot;&gt;&lt;b&gt;......&lt;/b&gt;&lt;/font&gt;" style="text;strokeColor=none;align=center;fillColor=none;html=1;verticalAlign=middle;whiteSpace=wrap;rounded=0;" vertex="1" parent="1">
          <mxGeometry x="160" y="405" width="40" height="70" as="geometry" />
        </mxCell>
        <mxCell id="5k1g2GwFXr-7lkfAhNHs-23" value="" style="endArrow=none;html=1;rounded=0;" edge="1" parent="1">
          <mxGeometry width="50" height="50" relative="1" as="geometry">
            <mxPoint x="355" y="390" as="sourcePoint" />
            <mxPoint x="405" y="340" as="targetPoint" />
          </mxGeometry>
        </mxCell>
        <mxCell id="5k1g2GwFXr-7lkfAhNHs-24" value="&lt;font face=&quot;Georgia&quot;&gt;PA&lt;/font&gt;" style="rounded=0;whiteSpace=wrap;html=1;fillColor=#66FF66;" vertex="1" parent="1">
          <mxGeometry x="316.65999999999997" y="419.66" width="50" height="40" as="geometry" />
        </mxCell>
        <mxCell id="5k1g2GwFXr-7lkfAhNHs-25" value="&lt;font face=&quot;Georgia&quot;&gt;US&lt;/font&gt;" style="rounded=0;whiteSpace=wrap;html=1;fillColor=#66FF66;" vertex="1" parent="1">
          <mxGeometry x="374.65999999999997" y="419.66" width="50" height="40" as="geometry" />
        </mxCell>
        <mxCell id="5k1g2GwFXr-7lkfAhNHs-26" value="" style="endArrow=none;dashed=1;html=1;rounded=0;" edge="1" parent="1">
          <mxGeometry width="50" height="50" relative="1" as="geometry">
            <mxPoint x="299.65999999999997" y="399.66" as="sourcePoint" />
            <mxPoint x="459.65999999999997" y="399.66" as="targetPoint" />
          </mxGeometry>
        </mxCell>
        <mxCell id="5k1g2GwFXr-7lkfAhNHs-27" value="" style="endArrow=none;dashed=1;html=1;rounded=0;" edge="1" parent="1">
          <mxGeometry width="50" height="50" relative="1" as="geometry">
            <mxPoint x="299.65999999999997" y="479.66" as="sourcePoint" />
            <mxPoint x="459.65999999999997" y="479.66" as="targetPoint" />
          </mxGeometry>
        </mxCell>
        <mxCell id="5k1g2GwFXr-7lkfAhNHs-28" value="" style="endArrow=none;dashed=1;html=1;rounded=0;" edge="1" parent="1">
          <mxGeometry width="50" height="50" relative="1" as="geometry">
            <mxPoint x="299.65999999999997" y="479.66" as="sourcePoint" />
            <mxPoint x="299.65999999999997" y="399.66" as="targetPoint" />
          </mxGeometry>
        </mxCell>
        <mxCell id="5k1g2GwFXr-7lkfAhNHs-29" value="" style="endArrow=none;dashed=1;html=1;rounded=0;" edge="1" parent="1">
          <mxGeometry width="50" height="50" relative="1" as="geometry">
            <mxPoint x="459.65999999999997" y="479.66" as="sourcePoint" />
            <mxPoint x="459.65999999999997" y="399.66" as="targetPoint" />
          </mxGeometry>
        </mxCell>
        <mxCell id="5k1g2GwFXr-7lkfAhNHs-30" value="&lt;font face=&quot;Georgia&quot;&gt;&lt;b&gt;......&lt;/b&gt;&lt;/font&gt;" style="text;strokeColor=none;align=center;fillColor=none;html=1;verticalAlign=middle;whiteSpace=wrap;rounded=0;" vertex="1" parent="1">
          <mxGeometry x="419.65999999999997" y="404.66" width="40" height="70" as="geometry" />
        </mxCell>
        <mxCell id="5k1g2GwFXr-7lkfAhNHs-31" value="&lt;font face=&quot;Georgia&quot;&gt;CPU&lt;/font&gt;" style="rounded=0;whiteSpace=wrap;html=1;fillColor=#00FFFF;" vertex="1" parent="1">
          <mxGeometry x="556.66" y="419.66" width="50" height="40" as="geometry" />
        </mxCell>
        <mxCell id="5k1g2GwFXr-7lkfAhNHs-32" value="&lt;font face=&quot;Georgia&quot;&gt;GPU&lt;/font&gt;" style="rounded=0;whiteSpace=wrap;html=1;fillColor=#00FFFF;" vertex="1" parent="1">
          <mxGeometry x="614.66" y="419.66" width="50" height="40" as="geometry" />
        </mxCell>
        <mxCell id="5k1g2GwFXr-7lkfAhNHs-33" value="" style="endArrow=none;dashed=1;html=1;rounded=0;" edge="1" parent="1">
          <mxGeometry width="50" height="50" relative="1" as="geometry">
            <mxPoint x="539.66" y="399.66" as="sourcePoint" />
            <mxPoint x="699.66" y="399.66" as="targetPoint" />
          </mxGeometry>
        </mxCell>
        <mxCell id="5k1g2GwFXr-7lkfAhNHs-34" value="" style="endArrow=none;dashed=1;html=1;rounded=0;" edge="1" parent="1">
          <mxGeometry width="50" height="50" relative="1" as="geometry">
            <mxPoint x="539.66" y="479.66" as="sourcePoint" />
            <mxPoint x="699.66" y="479.66" as="targetPoint" />
          </mxGeometry>
        </mxCell>
        <mxCell id="5k1g2GwFXr-7lkfAhNHs-35" value="" style="endArrow=none;dashed=1;html=1;rounded=0;" edge="1" parent="1">
          <mxGeometry width="50" height="50" relative="1" as="geometry">
            <mxPoint x="539.66" y="479.66" as="sourcePoint" />
            <mxPoint x="539.66" y="399.66" as="targetPoint" />
          </mxGeometry>
        </mxCell>
        <mxCell id="5k1g2GwFXr-7lkfAhNHs-36" value="" style="endArrow=none;dashed=1;html=1;rounded=0;" edge="1" parent="1">
          <mxGeometry width="50" height="50" relative="1" as="geometry">
            <mxPoint x="699.66" y="479.66" as="sourcePoint" />
            <mxPoint x="699.66" y="399.66" as="targetPoint" />
          </mxGeometry>
        </mxCell>
        <mxCell id="5k1g2GwFXr-7lkfAhNHs-37" value="&lt;font face=&quot;Georgia&quot;&gt;&lt;b&gt;......&lt;/b&gt;&lt;/font&gt;" style="text;strokeColor=none;align=center;fillColor=none;html=1;verticalAlign=middle;whiteSpace=wrap;rounded=0;" vertex="1" parent="1">
          <mxGeometry x="659.66" y="404.66" width="40" height="70" as="geometry" />
        </mxCell>
        <mxCell id="5k1g2GwFXr-7lkfAhNHs-38" value="" style="endArrow=none;html=1;rounded=0;" edge="1" parent="1">
          <mxGeometry width="50" height="50" relative="1" as="geometry">
            <mxPoint x="595" y="390" as="sourcePoint" />
            <mxPoint x="645" y="340" as="targetPoint" />
          </mxGeometry>
        </mxCell>
      </root>
    </mxGraphModel>
  </diagram>
</mxfile>
